# AST/ASF file generated using VICON BodyLanguage
# -----------------------------------------------
:version 1.10
:name VICON
:units
  mass 1.0
  length 0.45
  angle deg
:documentation
   .ast/.asf automatically generated from VICON data using
   VICON BodyBuilder and BodyLanguage model FoxedUp or BRILLIANT.MOD
:root
   order TX TY TZ RX RY RZ
   axis XYZ
   position 0 0 0  
   orientation 0 0 0 
:bonedata
  begin
     id 1 
     name lhipjoint
     direction 0.602128 -0.715006 0.355257 
     length 2.21237 
     axis 0 0 0  XYZ
  end
  begin
     id 2 
     name lfemur
     direction 0.34202 -0.939693 0  
     length 6.71649  
     axis 0 0 20  XYZ
    dof rx ry rz
    limits (-160.0 20.0)
           (-70.0 70.0)
           (-60.0 70.0)
  end
  begin
     id 3 
     name ltibia
     direction 0.34202 -0.939693 0   
     length 6.97123   
     axis 0 0 20   XYZ
    dof rx
    limits (-10.0 170.0)
  end
  begin
     id 4 
     name lfoot
     direction 0.0655697 -0.180151 0.981451   
     length 1.80924   
     axis -90 7.62852e-016 20   XYZ
    dof rx rz
    limits (-45.0 90.0)
           (-70.0 20.0)
  end
  begin
     id 5 
     name ltoes
     direction 1.53545e-011 -4.21827e-011 1   
     length 0.916331   
     axis -90 7.62852e-016 20   XYZ
    dof rx
    limits (-90.0 20.0)
  end
  begin
     id 6 
     name rhipjoint
     direction -0.625414 -0.698792 0.347201   
     length 2.2637  
     axis 0 0 0  XYZ 
  end
  begin
     id 7 
     name rfemur
     direction -0.34202 -0.939693 0   
     length 7.07595   
     axis 0 0 -20   XYZ
    dof rx ry rz
    limits (-160.0 20.0)
           (-70.0 70.0)
           (-70.0 60.0)
  end
  begin
     id 8 
     name rtibia
     direction -0.34202 -0.939693 0   
     length 7.22924   
     axis 0 0 -20   XYZ
    dof rx
    limits (-10.0 170.0)
 end
 begin
     id 9 
     name rfoot
     direction -0.0766747 -0.210662 0.974547   
     length 1.98482  
     axis -90 -7.62852e-016 -20   XYZ
    dof rx rz
    limits (-45.0 90.0)
           (-20.0 70.0)
  end
  begin
     id 10 
     name rtoes
     direction -1.53532e-011 -4.21867e-011 1   
     length 0.999842   
     axis -90 -7.62852e-016 -20   XYZ
    dof rx
    limits (-90.0 20.0)
  end
  begin
     id 11 
     name lowerback
     direction -0.0224668 0.997354 -0.0691422   
     length 2.09945   
     axis 0 0 0   XYZ
    dof rx ry rz
    limits (-20.0 45.0)
           (-30.0 30.0)
           (-30.0 30.0)
  end
  begin
     id 12 
     name upperback
     direction 0.0134698 0.998451 -0.0539888   
     length 2.09758   
     axis 0 0 0   XYZ
    dof rx ry rz
    limits (-20.0 45.0)
           (-30.0 30.0)
           (-30.0 30.0)
  end
  begin
     id 13 
     name thorax
     direction 0.0241905 0.99948 -0.0213333   
     length 2.10428   
     axis 0 0 0   XYZ
    dof rx ry rz
    limits (-20.0 45.0)
           (-30.0 30.0)
           (-30.0 30.0)
  end
  begin
     id 14 
     name lowerneck
     direction -0.00866847 0.995978 0.0891737   
     length 1.3959   
     axis 0 0 0   XYZ
    dof rx ry rz
    limits (-20.0 45.0)
           (-30.0 30.0)
           (-30.0 30.0)
  end
  begin
     id 15 
     name upperneck
     direction 0.0680679 0.992203 0.104404   
     length 1.39452   
     axis 0 0 0   XYZ
    dof rx ry rz
    limits (-20.0 45.0)
           (-30.0 30.0)
           (-30.0 30.0)
  end
  begin
     id 16
     name head
     direction 0.0242216 0.999358 0.0264054  
     length 1.40433  
     axis 0 0 0   XYZ
    dof rx ry rz
    limits (-20.0 45.0)
           (-30.0 30.0)
           (-30.0 30.0)
  end
  begin
     id 17 
     name lclavicle
     direction 0.929368 0.362991 -0.0671771  
     length 3.04887  
     axis 0 0 0   XYZ
    dof ry rz
    limits (-20.0 10.0)
           (0.0 20.0)
  end
  begin
     id 18 
     name lhumerus
     direction 1 -4.48967e-011 -7.13741e-028   
     length 4.77195   
     axis -180 -30 -90   XYZ
    dof rx ry rz
    limits (-60.0 90.0)
           (-90.0 90.0)
           (-90.0 90.0)
  end
  begin
     id 19
     name lradius
     direction 1 -4.48977e-011 3.60404e-027   
     length 2.98444   
     axis -180 -30 -90   XYZ
    dof rx
    limits (-10.0 170.0)
  end
  begin
     id 20
     name lwrist
     direction 1 -4.48997e-011 7.54877e-027   
     length 1.49222   
     axis -7.18178e-015 90 90   XYZ
    dof ry
    limits (-180.0 0.0)
 end
  begin
     id 21 
     name lhand
     direction 1 -4.489e-011 1.51105e-026   
     length 0.992285   
     axis -9.63605e-015 90 90   XYZ
    dof rx rz
    limits (-90.0 90.0)
           (-45.0 45.0)
  end
  begin
     id 22 
     name lfingers
     direction 1 -4.48998e-011 3.01948e-026   
     length 0.800006   
     axis -1.92718e-014 90 90   XYZ
    dof rx
    limits (0.0 90.0)
  end
  begin
     id 23
     name lthumb
     direction 0.707107 -6.34881e-011 0.707107   
     length 1.14865   
     axis -90 45 -3.53137e-014   XYZ
    dof rx rz
    limits (-45.0 45.0)
           (-45.0 45.0)
  end
  begin
     id 24 
     name rclavicle
     direction -0.945672 0.324529 0.0196374   
     length 3.4236  
     axis 0 0 0   XYZ 
    dof ry rz
    limits (-10.0 20.0)
           (-20.0 0.0)
  end
  begin
     id 25 
     name rhumerus
     direction -1 -4.4896e-011 1.02757e-029  
     length 4.62052   
     axis -180 30 90   XYZ
    dof rx ry rz
    limits (-90.0 60.0)
           (-90.0 90.0)
           (-90.0 90.0)
  end
  begin
     id 26 
     name rradius
     direction -1 -4.48982e-011 3.85962e-027   
     length 2.95332   
     axis -180 30 90   XYZ
    dof rx
    limits (-10.0 170.0)
  end
  begin
     id 27 
     name rwrist
     direction -1 -4.48961e-011 7.55118e-027   
     length 1.47666   
     axis -7.18178e-015 -90 -90   XYZ
    dof ry
    limits (-180.0 0.0)
  end
  begin
     id 28
     name rhand
     direction -1 -4.48984e-011 1.50994e-026   
     length 0.990956   
     axis -9.63605e-015 -90 -90   XYZ
    dof rx rz
    limits (-90.0 90.0)
           (-45.0 45.0)
  end
  begin
     id 29
     name rfingers
     direction -1 -4.4892e-011 3.02158e-026   
     length 0.798934   
     axis -1.92718e-014 -90 -90   XYZ
    dof rx
    limits (0.0 90.0)
  end
  begin
     id 30
     name rthumb
     direction -0.707107 -6.34916e-011 0.707107   
     length 1.14711   
     axis -90 -45 3.53137e-014   XYZ
    dof rx rz
    limits (-45.0 45.0)
           (-45.0 45.0)
  end
:hierarchy
  begin
    root lhipjoint rhipjoint lowerback
    lhipjoint lfemur
    lfemur ltibia
    ltibia lfoot
    lfoot ltoes
    rhipjoint rfemur
    rfemur rtibia
    rtibia rfoot
    rfoot rtoes
    lowerback upperback
    upperback thorax
    thorax lowerneck lclavicle rclavicle
    lowerneck upperneck
    upperneck head
    lclavicle lhumerus
    lhumerus lradius
    lradius lwrist
    lwrist lhand lthumb
    lhand lfingers
    rclavicle rhumerus
    rhumerus rradius
    rradius rwrist
    rwrist rhand rthumb
    rhand rfingers
  end

#!OML:ASF H:\ManfredObstacles\Project 1\Capture day 1\Session 1\Male.ASF
:FULLY-SPECIFIED
:DEGREES
79
root -3.64489 15.4966 48.5354 -169.737 -8.19818 -178.649
lowerback -6.696 -2.44118 -1.12382
upperback 2.06994 -3.33367 2.31054
thorax 6.12253 -1.75145 2.64103
lowerneck 1.51733 -2.55544 -5.91191
upperneck -12.8356 -3.38564 9.52916
head -3.77584 -2.15725 4.03828
rclavicle 6.41081e-014 -1.74931e-014
rhumerus -36.3248 -25.5949 -73.0328
rradius 25.9047
rwrist 34.9165
rhand -2.18352 -6.26481
rfingers 7.12502
rthumb 23.4974 -34.8497
lclavicle 6.41081e-014 -1.74931e-014
lhumerus -22.228 14.3479 87.7668
lradius 19.4635
lwrist -19.3108
lhand 5.61315 12.739
lfingers 7.12502
lthumb 30.9546 40.1492
rfemur -39.9255 -0.426479 17.5077
rtibia 41.9781
rfoot -18.234 4.39114
rtoes 4.00779
lfemur -6.63396 -2.12963 -18.7062
ltibia 23.0733
lfoot -17.8078 -14.6512
ltoes -0.506481
80
root -3.6142 15.4969 48.4813 -169.776 -8.41753 -178.681
lowerback -6.55294 -2.55931 -1.21821
upperback 2.04822 -3.48216 2.31129
thorax 6.03263 -1.82743 2.68274
lowerneck 1.63309 -2.54417 -5.8797
upperneck -12.9512 -3.3712 9.55413
head -3.83122 -2.15923 4.04587
rclavicle 3.54831e-014 -1.86858e-014
rhumerus -36.6014 -25.6738 -72.91
rradius 25.9921
rwrist 34.9001
rhand -2.02915 -6.18773
rfingers 7.12502
rthumb 23.6454 -34.7536
lclavicle 3.54831e-014 -1.86858e-014
lhumerus -22.1841 14.713 87.6082
lradius 19.3983
lwrist -19.3291
lhand 5.90672 12.2322
lfingers 7.12502
lthumb 31.2344 39.5887
rfemur -39.7739 -0.511571 17.6357
rtibia 42.2603
rfoot -17.8887 4.13634
rtoes 0.406267
lfemur -6.4698 -2.71059 -18.5433
ltibia 23.2193
lfoot -17.4326 -14.5235
ltoes -1.81414
81
root -3.58157 15.4993 48.4189 -169.75 -8.58819 -178.718
lowerback -6.47658 -2.64429 -1.27413
upperback 1.94553 -3.58284 2.2635
thorax 5.88719 -1.87482 2.65745
lowerneck 1.88033 -2.55154 -5.80038
upperneck -13.0147 -3.37475 9.5873
head -3.89227 -2.17003 4.04979
rclavicle 3.59303e-014 -1.5704e-014
rhumerus -37.1045 -25.8468 -72.6868
rradius 26.0316
rwrist 34.9964
rhand -1.93532 -5.94634
rfingers 7.12502
rthumb 23.7354 -34.5006
lclavicle 3.59303e-014 -1.5704e-014
lhumerus -22.3489 14.6452 87.5378
lradius 19.3825
lwrist -19.5684
lhand 5.6259 11.99
lfingers 7.12502
lthumb 30.9668 39.3978
rfemur -39.6693 -0.621255 17.7908
rtibia 42.515
rfoot -17.412 3.69572
rtoes -6.31403
lfemur -6.45735 -3.12587 -18.3759
ltibia 23.4288
lfoot -17.1253 -14.3623
ltoes -1.11411
82
root -3.54651 15.4957 48.3505 -169.729 -8.63036 -178.581
lowerback -6.41427 -2.68916 -1.08221
upperback 1.92852 -3.65682 2.22761
thorax 5.82309 -1.90304 2.50668
lowerneck 1.62337 -2.49403 -5.76799
upperneck -12.9938 -3.29911 9.62862
head -3.84838 -2.1382 4.0497
rclavicle -1.22253e-014 9.93923e-016
rhumerus -37.3394 -25.9866 -72.6409
rradius 25.962
rwrist 35.1209
rhand -2.0116 -5.9368
rfingers 7.12502
rthumb 23.6623 -34.5005
lclavicle -1.22253e-014 9.93923e-016
lhumerus -22.3098 14.3862 87.5624
lradius 19.2943
lwrist -20.0003
lhand 4.7476 12.37
lfingers 7.12502
lthumb 30.1292 39.9338
rfemur -39.6073 -0.504765 18.1047
rtibia 42.7399
rfoot -19.1791 4.3602
rtoes 4.18415
lfemur -6.46479 -3.23561 -18.0323
ltibia 23.6776
lfoot -16.9969 -14.1697
ltoes -3.22799
83
root -3.50895 15.4914 48.2754 -169.752 -8.61354 -178.506
lowerback -6.41035 -2.73655 -1.03211
upperback 1.95157 -3.72615 2.23472
thorax 5.84625 -1.93629 2.47737
lowerneck 1.49838 -2.44039 -5.91912
upperneck -12.9693 -3.22581 9.75347
head -3.82008 -2.10196 4.1088
rclavicle 1.74931e-014 6.75868e-015
rhumerus -37.447 -25.9766 -72.5697
rradius 25.8614
rwrist 35.0462
rhand -2.03553 -6.22694
rfingers 7.12502
rthumb 23.6393 -34.7936
lclavicle 1.74931e-014 6.75868e-015
lhumerus -22.2175 14.4277 87.5481
lradius 19.2516
lwrist -20.095
lhand 4.26105 12.787
lfingers 7.12502
lthumb 29.6649 40.4345
rfemur -39.4497 -0.145646 18.2751
rtibia 42.936
rfoot -17.8441 3.19228
rtoes -8.9459
lfemur -6.3208 -3.47973 -17.7865
ltibia 23.9712
lfoot -17.0384 -13.7048
ltoes -7.08636
84
root -3.46673 15.4959 48.1946 -169.763 -8.71701 -178.569
lowerback -6.4132 -2.8131 -1.10917
upperback 1.96391 -3.81699 2.18365
thorax 5.8675 -1.98214 2.45598
lowerneck 1.43698 -2.50317 -5.89144
upperneck -12.8608 -3.30675 9.77256
head -3.77061 -2.1398 4.10796
rclavicle 1.1778e-014 -7.15625e-015
rhumerus -37.6913 -26.2721 -72.3096
rradius 25.6939
rwrist 35.2353
rhand -2.10591 -6.39217
rfingers 7.12502
rthumb 23.5718 -34.9676
lclavicle 1.1778e-014 -7.15625e-015
lhumerus -22.0987 14.4618 87.4421
lradius 19.2396
lwrist -19.9011
lhand 3.99092 12.8984
lfingers 7.12502
lthumb 29.407 40.5914
rfemur -39.2083 -0.203221 18.437
rtibia 43.0902
rfoot -20.8576 4.56626
rtoes 9.0707
lfemur -6.18105 -3.89544 -17.6458
ltibia 24.2982
lfoot -16.8218 -13.394
ltoes -8.00245
85
root -3.42138 15.5032 48.1008 -169.617 -8.64974 -178.462
lowerback -6.70768 -2.79709 -0.95581
upperback 1.94415 -3.80169 2.10694
thorax 5.99784 -1.96605 2.27857
lowerneck 1.37305 -2.55084 -5.62012
upperneck -12.9384 -3.37695 9.65459
head -3.78564 -2.18634 4.02887
rclavicle 1.29459e-014 -1.94809e-014
rhumerus -38.0703 -26.8163 -71.9618
rradius 25.4827
rwrist 35.6333
rhand -2.23795 -6.24605
rfingers 7.12502
rthumb 23.4452 -34.8377
lclavicle 1.29459e-014 -1.94809e-014
lhumerus -21.9941 14.316 87.2875
lradius 19.2602
lwrist -19.5362
lhand 3.91696 13.3742
lfingers 7.12502
lthumb 29.3364 41.0796
rfemur -39.0926 0.0469263 18.7583
rtibia 43.2011
rfoot -20.0074 4.21723
rtoes 5.11096
lfemur -6.16679 -4.07975 -17.2977
ltibia 24.6154
lfoot -16.3481 -13.1746
ltoes -11.4033
86
root -3.36858 15.5143 48.0037 -169.578 -8.52633 -178.468
lowerback -6.84867 -2.80442 -0.965897
upperback 1.95443 -3.80255 2.01788
thorax 6.0834 -1.96376 2.18432
lowerneck 1.2423 -3.42238 -5.54873
upperneck -12.8229 -3.17385 9.81284
head -3.72473 -1.49609 4.01373
rclavicle 3.93842e-014 -9.24349e-015
rhumerus -38.395 -27.2556 -71.6696
rradius 25.3539
rwrist 35.8811
rhand -2.12522 -6.05904
rfingers 7.12502
rthumb 23.5533 -34.6368
lclavicle 3.93842e-014 -9.24349e-015
lhumerus -21.9371 14.4527 87.0639
lradius 19.3403
lwrist -19.3575
lhand 4.08617 13.6938
lfingers 7.12502
lthumb 29.498 41.3708
rfemur -38.8033 0.458107 18.9202
rtibia 43.242
rfoot -19.1432 3.49097
rtoes -2.01607
lfemur -5.99081 -4.30589 -17.0718
ltibia 24.9458
lfoot -15.8893 -12.7473
ltoes -10.7911
87
root -3.31246 15.5231 47.8982 -169.658 -8.3258 -178.516
lowerback -6.90772 -2.80504 -1.06197
upperback 1.96448 -3.78576 1.92189
thorax 6.12642 -1.95573 2.13706
lowerneck 1.17473 -3.37904 -5.59294
upperneck -12.6267 -3.13242 9.8679
head -3.65582 -1.4778 4.03207
rclavicle -5.8393e-014 2.09718e-014
rhumerus -38.8177 -27.6833 -71.3144
rradius 25.2741
rwrist 36.1123
rhand -1.8214 -5.88864
rfingers 7.12502
rthumb 23.8447 -34.4287
lclavicle -5.8393e-014 2.09718e-014
lhumerus -22.0159 14.5699 86.8307
lradius 19.3949
lwrist -19.5026
lhand 3.9571 13.4522
lfingers 7.12502
lthumb 29.3747 41.1509
rfemur -38.3457 0.569829 19.1625
rtibia 43.2004
rfoot -19.2424 3.62306
rtoes -2.58934
lfemur -5.70416 -4.64783 -16.9249
ltibia 25.3538
lfoot -15.8956 -12.1942
ltoes -14.3134
88
root -3.25465 15.5339 47.7837 -169.707 -8.16394 -178.402
lowerback -7.0539 -2.81604 -1.00245
upperback 1.93653 -3.80208 1.88774
thorax 6.1747 -1.95993 2.0598
lowerneck 1.13811 -3.27693 -5.63365
upperneck -12.434 -3.01864 9.87512
head -3.60037 -1.42342 4.0341
rclavicle 1.7754e-014 8.94531e-016
rhumerus -39.2208 -27.9457 -71.0011
rradius 25.1611
rwrist 36.1868
rhand -1.51663 -5.63398
rfingers 7.12502
rthumb 24.1369 -34.1355
lclavicle 1.7754e-014 8.94531e-016
lhumerus -22.2047 14.4174 86.6528
lradius 19.5266
lwrist -19.3195
lhand 3.72112 12.8919
lfingers 7.12502
lthumb 29.1494 40.6299
rfemur -37.8639 0.496376 19.6798
rtibia 43.0894
rfoot -19.535 3.82334
rtoes -2.71152
lfemur -5.45849 -5.05401 -16.5931
ltibia 25.7966
lfoot -14.8332 -11.9472
ltoes -10.963
89
root -3.19423 15.5514 47.6655 -169.799 -8.05618 -178.29
lowerback -7.17048 -2.86453 -0.959617
upperback 1.93344 -3.8704 1.88343
thorax 6.2381 -1.99177 2.01695
lowerneck 1.0856 -3.17405 -5.68748
upperneck -12.2794 -2.89879 9.87724
head -3.55404 -1.36379 4.03714
rclavicle 2.8712e-014 -3.926e-015
rhumerus -39.4969 -27.9575 -70.8162
rradius 25.0299
rwrist 36.2217
rhand -1.44971 -5.50357
rfingers 7.12502
rthumb 24.2011 -33.9966
lclavicle 2.8712e-014 -3.926e-015
lhumerus -22.5229 13.7007 86.6964
lradius 19.8183
lwrist -19.2659
lhand 2.944 12.2205
lfingers 7.12502
lthumb 28.407 40.0847
rfemur -37.2632 0.531719 20.165
rtibia 42.9331
rfoot -19.9163 3.68258
rtoes -4.37775
lfemur -5.16223 -5.42657 -16.2392
ltibia 26.2874
lfoot -14.5042 -11.3014
ltoes -13.7844
90
root -3.1304 15.5671 47.5432 -169.946 -7.92805 -178.32
lowerback -7.24338 -2.92729 -1.05611
upperback 1.95072 -3.94025 1.83081
thorax 6.30421 -2.02811 2.00281
lowerneck 1.11915 -3.13121 -5.71151
upperneck -12.0894 -2.88198 9.82178
head -3.50544 -1.36025 4.02097
rclavicle -4.70126e-014 2.99668e-014
rhumerus -39.7896 -28.1414 -70.5355
rradius 24.8342
rwrist 36.6187
rhand -1.59531 -5.65926
rfingers 7.12502
rthumb 24.0615 -34.1708
lclavicle -4.70126e-014 2.99668e-014
lhumerus -22.7985 13.1628 86.6602
lradius 20.0425
lwrist -19.3075
lhand 2.43373 12.6192
lfingers 7.12502
lthumb 27.9193 40.5637
rfemur -36.551 0.57547 20.4751
rtibia 42.7477
rfoot -20.2785 3.79481
rtoes -4.89042
lfemur -4.89344 -5.80198 -16.049
ltibia 26.8919
lfoot -14.1887 -10.6924
ltoes -15.8938
91
root -3.06205 15.5814 47.4143 -169.966 -7.6964 -178.318
lowerback -7.4798 -2.96564 -1.08745
upperback 1.92866 -3.97794 1.72943
thorax 6.41238 -2.04382 1.89822
lowerneck 1.16619 -3.12223 -5.63481
upperneck -11.8395 -2.91828 9.73503
head -3.43963 -1.38779 3.97879
rclavicle 3.78265e-014 -9.65659e-015
rhumerus -40.1767 -28.6608 -70.1228
rradius 24.5856
rwrist 37.276
rhand -1.67951 -5.68487
rfingers 7.12502
rthumb 23.9807 -34.2071
lclavicle 3.78265e-014 -9.65659e-015
lhumerus -22.9352 13.5278 86.1663
lradius 20.1508
lwrist -18.8762
lhand 2.94618 13.27
lfingers 7.12502
lthumb 28.4091 41.1339
rfemur -35.9724 0.675087 20.8163
rtibia 42.5526
rfoot -20.8022 4.32138
rtoes -2.32697
lfemur -4.80531 -6.13802 -15.8383
ltibia 27.587
lfoot -13.5731 -10.106
ltoes -18.9363
92
root -2.99077 15.5973 47.2838 -169.902 -7.53833 -178.177
lowerback -7.77735 -3.03184 -0.984607
upperback 1.86857 -4.06974 1.67415
thorax 6.51142 -2.08209 1.75692
lowerneck 1.09878 -3.03729 -5.59864
upperneck -11.5763 -2.83793 9.68442
head -3.35826 -1.35136 3.94957
rclavicle 1.4064e-014 -7.1811e-015
rhumerus -40.5422 -29.1007 -69.7339
rradius 24.3573
rwrist 37.7243
rhand -1.5972 -5.24533
rfingers 7.12502
rthumb 24.0597 -33.7571
lclavicle 1.4064e-014 -7.1811e-015
lhumerus -23.267 13.6499 85.747
lradius 20.3761
lwrist -18.7475
lhand 2.81153 12.9306
lfingers 7.12502
lthumb 28.2804 40.8158
rfemur -35.4861 1.00264 21.2519
rtibia 42.3492
rfoot -22.0116 4.97183
rtoes 4.13198
lfemur -4.87393 -6.62958 -15.4608
ltibia 28.3987
lfoot -12.9532 -9.33923
ltoes -21.6844
